<svg xmlns="http://www.w3.org/2000/svg" xmlns:xlink="http://www.w3.org/1999/xlink" width="22" height="22" viewBox="0 0 22 22">
  <defs>
    <style>
      .cls-1 {
        fill: #bdc3c7;
        fill-rule: evenodd;
        filter: url(#filter);
      }
    </style>
    <filter id="filter" x="-0.188" y="-0.188" width="22.375" height="22.375" filterUnits="userSpaceOnUse">
      <feFlood result="flood" flood-color="#fff"/>
      <feComposite result="composite" operator="in" in2="SourceGraphic"/>
      <feBlend result="blend" in2="SourceGraphic"/>
    </filter>
  </defs>
  <path id="tooltip" class="cls-1" d="M19.4,18H15.78l-3.79,3.79h0a1.4,1.4,0,0,1-1.98,0h0L6.22,18H2.6A2.8,2.8,0,0,1-.2,15.2V2.6A2.8,2.8,0,0,1,2.6-.2H19.4a2.8,2.8,0,0,1,2.8,2.8V15.2A2.8,2.8,0,0,1,19.4,18Zm0-14A1.4,1.4,0,0,0,18,2.6H4A1.4,1.4,0,0,0,2.6,4v9.8A1.4,1.4,0,0,0,4,15.2H6.8a1.4,1.4,0,0,1,.99.41h0L11,18.819l3.21-3.21h0a1.4,1.4,0,0,1,.99-0.41H18a1.4,1.4,0,0,0,1.4-1.4V4Zm-4.2,8.4H6.8a1.4,1.4,0,0,1,0-2.8h8.4A1.4,1.4,0,0,1,15.2,12.4Zm0-4.2H6.8a1.4,1.4,0,1,1,0-2.8h8.4A1.4,1.4,0,1,1,15.2,8.2Z"/>
</svg>
